<svg class="img-fluid" id="outputsvg" xmlns="http://www.w3.org/2000/svg" style="transform: matrix(1, 0, 0, 1, 0, 0); transform-origin: 50% 50%; cursor: move; transition: transform 200ms ease-in-out;" width="351" height="351" viewBox="0 0 3510 3510"><g id="l50b1k4aQFqmhhWGW91VMUn" fill="rgb(247,255,231)" style="transform: none;"><g style="transform: none;"><path id="pECeiXDXt" d="M3 2998 l3 -513 31 -85 c67 -185 117 -270 219 -374 105 -106 230 -182 387 -237 37 -12 66 -27 64 -33 -2 -5 -53 -30 -113 -55 -161 -67 -247 -121 -339 -216 -99 -101 -162 -206 -212 -350 l-38 -110 -3 -512 -3 -513 504 0 504 0 77 25 c152 50 300 139 410 248 107 106 166 205 226 382 15 43 32 81 37 82 5 2 21 -35 37 -83 15 -47 51 -132 78 -187 45 -90 63 -114 152 -202 86 -86 116 -108 201 -152 55 -28 140 -65 188 -82 l89 -31 504 0 504 0 0 498 c0 494 0 497 -24 572 -106 336 -345 582 -639 656 -37 9 -67 20 -67 24 0 4 35 20 78 35 315 112 503 300 627 631 l25 66 0 515 0 514 -502 -3 -503 -4 -80 -26 c-168 -54 -271 -109 -378 -201 -106 -91 -167 -184 -242 -369 -26 -65 -51 -118 -55 -118 -3 0 -22 46 -41 102 -94 283 -287 473 -581 574 l-113 39 -508 3 -508 3 4 -513z"></path></g></g></svg>