<svg width="128" height="100" viewBox="0 0 128 100" fill="none" xmlns="http://www.w3.org/2000/svg">
<path d="M69.9788 20.5833L72.707 40.2098C72.8176 40.9999 73.4167 41.6273 74.1923 41.7665L93.4955 45.2075C95.2309 45.5173 95.5625 47.8917 93.9763 48.674L76.3602 57.3618C75.6524 57.7108 75.2452 58.4814 75.3558 59.2715L78.084 78.898C78.3302 80.6626 76.1973 81.7135 74.9738 80.4332L61.3578 66.177C60.811 65.6045 59.9598 65.4516 59.252 65.8006L41.6359 74.4884C40.0517 75.2707 38.4035 73.5453 39.2315 71.9709L48.4342 54.4718C48.8045 53.7679 48.6843 52.9032 48.1355 52.3307L34.5177 38.0726C33.2922 36.7903 34.4072 34.6728 36.1426 34.9826L55.4457 38.4236C56.2213 38.5628 56.9989 38.1785 57.3692 37.4746L66.57 19.9775C67.3979 18.403 69.7325 18.8207 69.9788 20.5853V20.5833Z" stroke="#F7C62A" stroke-width="2" stroke-linecap="round" stroke-linejoin="round"/>
</svg>
