<svg width="128" height="100" viewBox="0 0 128 100" fill="none" xmlns="http://www.w3.org/2000/svg">
<path d="M65.2723 34.4041C66.6662 33.0952 67.9875 31.7148 69.4499 30.511C72.5743 27.9415 76.1972 26.9813 80.1962 27.3553C84.7456 27.7797 88.6573 29.555 91.6882 33.0469C95.3319 37.2467 96.6532 42.1483 95.7017 47.6592C94.8022 52.8801 92.1702 57.038 88.1151 60.3407C84.9035 62.9564 81.293 64.9104 77.6659 66.8349C71.3424 70.1901 64.9566 73.4319 59.0942 77.6003C58.2113 78.2285 57.2869 78.115 56.699 77.2683C52.1932 70.7868 46.7899 65.0805 41.5342 59.2419C38.8149 56.2207 36.2431 53.0776 34.3444 49.4345C31.8806 44.7031 31.4132 39.7343 32.6866 34.5911C34.3381 27.9226 40.5474 22.6407 47.3176 22.0734C51.4079 21.731 55.222 22.5735 58.6663 24.874C61.1467 26.5317 62.7878 28.9142 64.0467 31.5888C64.4954 32.5426 64.8901 33.5238 65.2723 34.4062V34.4041Z" stroke="#E63312" stroke-width="2" stroke-linecap="round" stroke-linejoin="round"/>
</svg>
