<svg width="128" height="100" viewBox="0 0 128 100" fill="none" xmlns="http://www.w3.org/2000/svg">
<path d="M70.593 68.0344C70.593 68.0127 70.5973 67.9911 70.5995 67.9695C70.8374 65.6815 72.3966 63.7568 74.5117 62.8506C82.6214 59.3797 88.7653 51.7803 89.8423 42.2086C91.2588 29.6244 82.9912 17.7258 70.699 14.6722C56.2031 11.0737 41.9407 20.5221 39.391 34.979C37.8318 43.8284 41.0389 52.4096 47.1677 58.1016C48.8221 59.637 49.5682 61.9164 49.0103 64.1028L48.98 64.2239" stroke="#009B49" stroke-width="2" stroke-linecap="round" stroke-linejoin="round"/>
<path d="M50.8118 77.21L64.4592 79.6164L63.8688 82.9643C63.6247 84.3487 62.302 85.2749 60.9176 85.0308L52.2879 83.5091C50.9036 83.265 49.9773 81.9423 50.2214 80.5579L50.8118 77.21Z" stroke="#009B49" stroke-width="2" stroke-linecap="round" stroke-linejoin="round"/>
<path d="M48.9779 64.2239L47.6327 71.9119C47.1851 74.4508 48.8805 76.8708 51.4173 77.3184L63.8501 79.5113C66.3889 79.9589 68.8089 78.2635 69.2566 75.7267L70.593 68.0365" stroke="#009B49" stroke-width="2" stroke-linecap="round" stroke-linejoin="round"/>
<path d="M49 64C50.0127 64.193 60.0221 66.0999 60.0221 66.0999C60.0221 66.0999 68.9873 67.807 70 68" stroke="#009B49" stroke-width="2" stroke-linecap="round" stroke-linejoin="round"/>
<path d="M63 66L67.6148 39.6892M67.6148 39.6892L67.8819 38.1666C68.0168 37.3983 68.7444 36.8862 69.5085 37.0218L70.8398 37.2585C71.6038 37.394 72.1132 38.1257 71.9784 38.894C71.8435 39.6622 71.1158 40.1744 70.3518 40.0388L67.6148 39.6892Z" stroke="#009B49" stroke-width="2" stroke-linecap="round" stroke-linejoin="round"/>
<path d="M58 65L62.8561 36.9113C62.9903 36.136 62.4836 35.3977 61.7235 35.2608L60.3993 35.022C59.6393 34.8851 58.9154 35.402 58.7813 36.1773C58.6472 36.9526 59.1539 37.691 59.9139 37.8278L67 39.5" stroke="#009B49" stroke-width="2" stroke-linecap="round" stroke-linejoin="round"/>
</svg>
