<svg width="36" height="36" viewBox="0 0 36 36" fill="none" xmlns="http://www.w3.org/2000/svg">
<mask id="mask0_1189_9401" style="mask-type:alpha" maskUnits="userSpaceOnUse" x="0" y="0" width="36" height="36">
<rect width="36" height="36" fill="#D9D9D9"/>
</mask>
<g mask="url(#mask0_1189_9401)">
<path d="M11.25 33C9.8 33 8.5625 32.4875 7.5375 31.4625C6.5125 30.4375 6 29.2 6 27.75V8.25C6 6.8 6.5125 5.5625 7.5375 4.5375C8.5625 3.5125 9.8 3 11.25 3H27C27.825 3 28.5313 3.29375 29.1188 3.88125C29.7063 4.46875 30 5.175 30 6V24.7875C30 24.9875 29.9188 25.1687 29.7563 25.3312C29.5938 25.4937 29.3 25.675 28.875 25.875C28.525 26.05 28.25 26.3 28.05 26.625C27.85 26.95 27.75 27.325 27.75 27.75C27.75 28.175 27.85 28.5563 28.05 28.8938C28.25 29.2313 28.525 29.475 28.875 29.625C29.225 29.775 29.5 29.9813 29.7 30.2438C29.9 30.5063 30 30.7875 30 31.0875V31.4625C30 31.8875 29.8563 32.25 29.5688 32.55C29.2813 32.85 28.925 33 28.5 33H11.25ZM13.5 22.5C13.925 22.5 14.2813 22.3563 14.5688 22.0688C14.8563 21.7813 15 21.425 15 21V7.5C15 7.075 14.8563 6.71875 14.5688 6.43125C14.2813 6.14375 13.925 6 13.5 6C13.075 6 12.7187 6.14375 12.4312 6.43125C12.1437 6.71875 12 7.075 12 7.5V21C12 21.425 12.1437 21.7813 12.4312 22.0688C12.7187 22.3563 13.075 22.5 13.5 22.5ZM11.25 30H25.2375C25.0875 29.65 24.9688 29.2938 24.8813 28.9313C24.7938 28.5688 24.75 28.175 24.75 27.75C24.75 27.35 24.7875 26.9625 24.8625 26.5875C24.9375 26.2125 25.0625 25.85 25.2375 25.5H11.25C10.6 25.5 10.0625 25.7187 9.6375 26.1562C9.2125 26.5938 9 27.125 9 27.75C9 28.4 9.2125 28.9375 9.6375 29.3625C10.0625 29.7875 10.6 30 11.25 30Z" fill="#8BC53F"/>
</g>
</svg>
