<svg width="16" height="16" viewBox="0 0 16 16" fill="none" xmlns="http://www.w3.org/2000/svg">
<path d="M13.3872 8.98506L12.1648 9.30806C11.9862 9.35571 11.8192 9.43943 11.6742 9.55406L10.3658 8.79306C10.5498 8.28006 10.5498 7.71905 10.3658 7.20606L11.6742 6.44506C11.8192 6.55969 11.9862 6.64341 12.1648 6.69106C12.1648 6.69106 13.4733 7.03056 13.5148 7.03056C13.6347 7.02857 13.75 6.98351 13.8395 6.90361C13.929 6.82371 13.9867 6.71429 14.0023 6.59532C14.0178 6.47635 13.99 6.35577 13.924 6.25557C13.858 6.15538 13.7582 6.08226 13.6427 6.04956L12.4207 5.72606C12.3292 5.70177 12.2511 5.64216 12.2035 5.56033C12.1559 5.4785 12.1427 5.38112 12.1667 5.28956L12.4902 4.06756C12.5071 4.00407 12.5112 3.93788 12.5024 3.87279C12.4937 3.80769 12.4722 3.74497 12.4391 3.68818C12.4061 3.6314 12.3623 3.58167 12.31 3.54185C12.2578 3.50202 12.1982 3.47287 12.1348 3.45606C12.0713 3.43925 12.0051 3.43511 11.94 3.44388C11.8749 3.45265 11.8122 3.47415 11.7554 3.50716C11.6986 3.54017 11.6489 3.58405 11.609 3.63628C11.5692 3.6885 11.5401 3.74807 11.5233 3.81156L11.2002 5.03356C11.1527 5.21292 11.1428 5.40019 11.1713 5.58356L9.86325 6.34156C9.50842 5.93806 9.03255 5.66022 8.50675 5.54956V4.04956C8.67899 3.98237 8.83545 3.88022 8.96625 3.74956L9.86025 2.85556C9.95434 2.76181 10.0073 2.63452 10.0076 2.50169C10.0078 2.36887 9.95525 2.24139 9.8615 2.14731C9.76775 2.05322 9.64046 2.00024 9.50763 2C9.37481 1.99977 9.24734 2.05231 9.15325 2.14606L8.25925 3.04006C8.19204 3.10656 8.1013 3.14386 8.00675 3.14386C7.9122 3.14386 7.82146 3.10656 7.75425 3.04006L6.86025 2.14606C6.76595 2.05498 6.63965 2.00458 6.50855 2.00572C6.37745 2.00686 6.25204 2.05945 6.15934 2.15215C6.06664 2.24485 6.01405 2.37026 6.01291 2.50136C6.01177 2.63246 6.06217 2.75876 6.15325 2.85306L7.04725 3.74956C7.17805 3.88022 7.33451 3.98237 7.50675 4.04956V5.54956C6.98095 5.66022 6.50508 5.93806 6.15025 6.34156L4.84225 5.58056C4.87067 5.39719 4.86079 5.20992 4.81325 5.03056L4.49025 3.80956C4.47344 3.74607 4.44429 3.6865 4.40446 3.63428C4.36463 3.58205 4.31491 3.53817 4.25813 3.50516C4.20134 3.47215 4.13861 3.45065 4.07352 3.44188C4.00843 3.43311 3.94224 3.43725 3.87875 3.45406C3.81526 3.47087 3.75569 3.50002 3.70347 3.53985C3.65124 3.57967 3.60736 3.6294 3.57435 3.68618C3.54134 3.74297 3.51984 3.80569 3.51107 3.87079C3.5023 3.93588 3.50644 4.00206 3.52325 4.06556L3.84675 5.28756C3.87084 5.37912 3.85763 5.4765 3.81001 5.55833C3.76239 5.64016 3.68426 5.69977 3.59275 5.72406L2.37075 6.04956C2.25374 6.08087 2.15208 6.15359 2.08465 6.25421C2.01722 6.35483 1.9886 6.4765 2.00412 6.59663C2.01964 6.71676 2.07824 6.82716 2.16903 6.90734C2.25982 6.98752 2.37663 7.03201 2.49775 7.03256C2.54025 7.03256 3.84775 6.69306 3.84775 6.69306C4.02633 6.64541 4.19326 6.56169 4.33825 6.44706L5.64675 7.20806C5.46272 7.72105 5.46272 8.28206 5.64675 8.79506L4.33925 9.55406C4.19426 9.43943 4.02733 9.35571 3.84875 9.30806L2.62625 8.98506C2.50175 8.96084 2.37271 8.98484 2.26524 9.05219C2.15778 9.11955 2.07992 9.22522 2.04745 9.34782C2.01497 9.47042 2.0303 9.60078 2.09032 9.71251C2.15035 9.82423 2.25059 9.90897 2.37075 9.94956L3.59275 10.2731C3.68426 10.2974 3.76239 10.357 3.81001 10.4388C3.85763 10.5206 3.87084 10.618 3.84675 10.7096L3.52325 11.9316C3.50644 11.9951 3.5023 12.0612 3.51107 12.1263C3.51984 12.1914 3.54134 12.2542 3.57435 12.3109C3.60736 12.3677 3.65124 12.4174 3.70347 12.4573C3.75569 12.4971 3.81526 12.5262 3.87875 12.5431C3.94224 12.5599 4.00843 12.564 4.07352 12.5552C4.13861 12.5465 4.20134 12.525 4.25813 12.492C4.31491 12.4589 4.36463 12.4151 4.40446 12.3628C4.44429 12.3106 4.47344 12.2511 4.49025 12.1876L4.81325 10.9656C4.86079 10.7862 4.87067 10.5989 4.84225 10.4156L6.15025 9.65456C6.50464 10.0592 6.98056 10.3381 7.50675 10.4496V11.9496C7.3346 12.0169 7.17818 12.1191 7.04725 12.2496L6.15325 13.1461C6.06217 13.2404 6.01177 13.3667 6.01291 13.4978C6.01405 13.6289 6.06664 13.7543 6.15934 13.847C6.25204 13.9397 6.37745 13.9923 6.50855 13.9934C6.63965 13.9945 6.76595 13.9441 6.86025 13.8531L7.75675 12.9591C7.82396 12.8926 7.9147 12.8553 8.00925 12.8553C8.1038 12.8553 8.19454 12.8926 8.26175 12.9591L9.15575 13.8531C9.25005 13.9441 9.37635 13.9945 9.50745 13.9934C9.63855 13.9923 9.76396 13.9397 9.85666 13.847C9.94936 13.7543 10.0019 13.6289 10.0031 13.4978C10.0042 13.3667 9.95383 13.2404 9.86275 13.1461L8.96875 12.2521C8.83732 12.1204 8.68001 12.0174 8.50675 11.9496V10.4496C9.03249 10.339 9.50835 10.0614 9.86325 9.65806L11.1713 10.4191C11.1428 10.6024 11.1527 10.7897 11.2002 10.9691L11.5233 12.1911C11.5572 12.3193 11.6407 12.4288 11.7554 12.4955C11.8701 12.5621 12.0065 12.5805 12.1348 12.5466C12.263 12.5126 12.3725 12.4291 12.4391 12.3144C12.5058 12.1998 12.5242 12.0633 12.4902 11.9351L12.1667 10.7131C12.1427 10.6215 12.1559 10.5241 12.2035 10.4423C12.2511 10.3605 12.3292 10.3009 12.4207 10.2766L13.6427 9.95306C13.7076 9.9376 13.7687 9.90931 13.8225 9.86987C13.8763 9.83043 13.9216 9.78063 13.9559 9.7234C13.9901 9.66617 14.0126 9.60267 14.0219 9.53664C14.0312 9.4706 14.0273 9.40337 14.0102 9.3389C13.9932 9.27442 13.9634 9.21401 13.9227 9.16121C13.8819 9.10842 13.831 9.0643 13.773 9.03147C13.7149 8.99864 13.6509 8.97775 13.5846 8.97004C13.5184 8.96233 13.4513 8.96794 13.3872 8.98656V8.98506ZM8.00675 9.49956C7.60892 9.49956 7.22739 9.34152 6.94609 9.06022C6.66478 8.77891 6.50675 8.39738 6.50675 7.99956C6.50675 7.60173 6.66478 7.2202 6.94609 6.9389C7.22739 6.65759 7.60892 6.49956 8.00675 6.49956C8.40457 6.49956 8.78611 6.65759 9.06741 6.9389C9.34871 7.2202 9.50675 7.60173 9.50675 7.99956C9.50675 8.39738 9.34871 8.77891 9.06741 9.06022C8.78611 9.34152 8.40457 9.49956 8.00675 9.49956Z" fill="#2D2D7C"/>
</svg>
