<svg width="36" height="36" viewBox="0 0 36 36" fill="none" xmlns="http://www.w3.org/2000/svg">
<mask id="mask0_1189_9397" style="mask-type:alpha" maskUnits="userSpaceOnUse" x="0" y="0" width="36" height="36">
<rect width="36" height="36" fill="#D9D9D9"/>
</mask>
<g mask="url(#mask0_1189_9397)">
<path d="M26.7751 29.925L20.1376 23.2875L23.2876 20.1375L29.9251 26.775C30.3501 27.2 30.5626 27.725 30.5626 28.35C30.5626 28.975 30.3501 29.5 29.9251 29.925C29.5001 30.35 28.9751 30.5625 28.3501 30.5625C27.7251 30.5625 27.2001 30.35 26.7751 29.925ZM6.0751 29.925C5.6501 29.5 5.4376 28.975 5.4376 28.35C5.4376 27.725 5.6501 27.2 6.0751 26.775L14.8501 18L12.3001 15.45C12.0251 15.725 11.6751 15.8625 11.2501 15.8625C10.8251 15.8625 10.4751 15.725 10.2001 15.45L9.3376 14.5875V17.9625C9.3376 18.3125 9.1876 18.55 8.8876 18.675C8.5876 18.8 8.3126 18.7375 8.0626 18.4875L3.9751 14.4C3.7251 14.15 3.6626 13.875 3.7876 13.575C3.9126 13.275 4.1501 13.125 4.5001 13.125H7.8751L7.0501 12.3C6.7501 12 6.6001 11.65 6.6001 11.25C6.6001 10.85 6.7501 10.5 7.0501 10.2L11.3251 5.92502C11.8251 5.42502 12.3626 5.06252 12.9376 4.83752C13.5126 4.61252 14.1001 4.50002 14.7001 4.50002C15.2001 4.50002 15.6688 4.57502 16.1063 4.72502C16.5438 4.87502 16.9751 5.10002 17.4001 5.40002C17.6001 5.52502 17.7063 5.70002 17.7188 5.92502C17.7313 6.15002 17.6501 6.35002 17.4751 6.52502L14.6251 9.37502L15.4501 10.2C15.7251 10.475 15.8626 10.825 15.8626 11.25C15.8626 11.675 15.7251 12.025 15.4501 12.3L18.0001 14.85L21.3751 11.475C21.2751 11.2 21.1938 10.9125 21.1313 10.6125C21.0688 10.3125 21.0376 10.0125 21.0376 9.71252C21.0376 8.23752 21.5438 6.99377 22.5563 5.98127C23.5688 4.96877 24.8126 4.46252 26.2876 4.46252C26.4876 4.46252 26.6751 4.46877 26.8501 4.48127C27.0251 4.49377 27.2001 4.52502 27.3751 4.57502C27.6001 4.65002 27.7438 4.80627 27.8063 5.04377C27.8688 5.28127 27.8126 5.48752 27.6376 5.66252L25.2001 8.10002C25.0501 8.25002 24.9751 8.42502 24.9751 8.62502C24.9751 8.82502 25.0501 9.00002 25.2001 9.15002L26.8501 10.8C27.0001 10.95 27.1751 11.025 27.3751 11.025C27.5751 11.025 27.7501 10.95 27.9001 10.8L30.3376 8.36252C30.5126 8.18752 30.7188 8.12502 30.9563 8.17502C31.1938 8.22502 31.3501 8.37502 31.4251 8.62502C31.4751 8.80002 31.5063 8.97502 31.5188 9.15002C31.5313 9.32502 31.5376 9.51252 31.5376 9.71252C31.5376 11.1875 31.0313 12.4313 30.0188 13.4438C29.0063 14.4563 27.7626 14.9625 26.2876 14.9625C25.9876 14.9625 25.6876 14.9375 25.3876 14.8875C25.0876 14.8375 24.8001 14.75 24.5251 14.625L9.2251 29.925C8.8001 30.35 8.2751 30.5625 7.6501 30.5625C7.0251 30.5625 6.5001 30.35 6.0751 29.925Z" fill="#8BC53F"/>
</g>
</svg>
