<svg width="16" height="16" viewBox="0 0 16 16" fill="none" xmlns="http://www.w3.org/2000/svg">
<g clip-path="url(#clip0_1084_6524)">
<path d="M13.4626 2.58713C13.2402 2.34231 12.9632 2.16491 12.6589 2.07241C12.3545 1.97992 12.0333 1.97551 11.7269 2.05963C9.35165 2.73991 7.17629 4.07418 5.40926 5.93463C5.06166 6.31613 4.7906 6.77233 4.6133 7.27425C4.436 7.77616 4.35634 8.31283 4.37939 8.85013C4.41222 9.6301 4.66317 10.3804 5.09851 11.0001L3.13455 13.1466C3.09078 13.1928 3.05586 13.2479 3.03184 13.3089C3.00782 13.3699 2.99518 13.4355 2.99465 13.5019C2.99412 13.5683 3.00571 13.6342 3.02876 13.6956C3.0518 13.7571 3.08584 13.8129 3.12887 13.8598C3.17191 13.9068 3.22308 13.9439 3.27941 13.969C3.33573 13.9942 3.39609 14.0068 3.45694 14.0063C3.5178 14.0057 3.57794 13.9919 3.63386 13.9657C3.68978 13.9395 3.74036 13.9014 3.78264 13.8536L5.74614 11.7116C6.34797 12.2243 7.09 12.5019 7.85355 12.5001C8.35881 12.4922 8.85768 12.3757 9.32167 12.1573C9.78565 11.939 10.2057 11.6231 10.5577 11.2276C12.5744 9.02763 13.7124 5.50463 13.9466 4.46513C14.0228 4.13322 14.0182 3.78538 13.9333 3.456C13.8484 3.12663 13.6862 2.82713 13.4626 2.58713ZM5.29514 8.80413C5.27789 8.4055 5.33682 8.00731 5.46819 7.63486C5.59957 7.2624 5.80051 6.92383 6.05826 6.64063C6.25443 6.42813 6.45839 6.22863 6.66693 6.03363V9.29313L5.75484 10.2881C5.47691 9.85037 5.3176 9.33608 5.29514 8.80413ZM9.89589 10.5336C9.45937 11.0512 8.86791 11.3819 8.22787 11.4662C7.58783 11.5505 6.94121 11.3829 6.4043 10.9936L7.44884 9.85413L8.69001 8.50013H11.3309C10.9158 9.22836 10.4351 9.90957 9.89589 10.5336ZM13.0584 4.22363C12.7821 5.36365 12.3821 6.4636 11.8667 7.50013H9.60668L11.116 5.85363C11.1597 5.80751 11.1947 5.75234 11.2187 5.69134C11.2427 5.63033 11.2553 5.56472 11.2559 5.49833C11.2564 5.43194 11.2448 5.36611 11.2218 5.30466C11.1987 5.24321 11.1647 5.18738 11.1217 5.14044C11.0786 5.09349 11.0274 5.05636 10.9711 5.03122C10.9148 5.00608 10.8544 4.99343 10.7936 4.99401C10.7327 4.99459 10.6726 5.00838 10.6167 5.03458C10.5607 5.06079 10.5102 5.09888 10.4679 5.14663L8.17622 7.64663L7.58359 8.29313V5.25613C8.90864 4.24308 10.3855 3.48996 11.9478 3.03063C12.0204 3.01071 12.0949 3.00047 12.1697 3.00013C12.2898 3.00041 12.4087 3.02657 12.5195 3.07711C12.6303 3.12765 12.7309 3.20157 12.8155 3.29463C12.9271 3.4126 13.0082 3.56064 13.0505 3.72377C13.0928 3.8869 13.0949 4.05934 13.0566 4.22363H13.0584Z" fill="#009B49"/>
</g>
<defs>
<clipPath id="clip0_1084_6524">
<rect width="11" height="12" fill="white" transform="translate(3 2)"/>
</clipPath>
</defs>
</svg>
