<svg width="128" height="100" viewBox="0 0 128 100" fill="none" xmlns="http://www.w3.org/2000/svg">
<path d="M64 55.9467L62.3486 65.3659C61.6551 64.7555 60.803 64.3089 59.8388 64.1154C56.9188 63.5263 53.9671 65.5296 53.4194 68.473C52.8612 71.4716 54.8446 74.3448 57.8238 74.8722C58.8387 75.053 59.8367 74.9318 60.7332 74.5808L59.0819 84L36.2271 79.9465C33.4445 79.4531 31.5881 76.7841 32.0786 73.9875L36.1087 51" stroke="#2D2D7C" stroke-width="2" stroke-linecap="round" stroke-linejoin="round"/>
<path d="M64 56L54.5987 54.2979C55.2079 53.583 55.6537 52.7047 55.8469 51.7109C56.4348 48.7011 54.4353 45.6586 51.4975 45.0941C48.5598 44.5296 45.6369 46.563 45.1105 49.6339C44.93 50.68 45.051 51.7087 45.4013 52.6328L36 50.9306" stroke="#2D2D7C" stroke-width="2" stroke-linecap="round" stroke-linejoin="round"/>
<path d="M62.8043 39.9958L53.1326 39.9335C53.6251 39.1622 53.9241 38.264 53.9542 37.2973C54.0445 34.3722 51.5454 31.8358 48.5194 31.7859C45.4353 31.7339 42.9082 34.1248 42.8867 37.0998C42.8802 38.1144 43.1706 39.0603 43.6717 39.8732L34 39.8108L34.1592 16.9939C34.1785 14.2163 36.5228 11.9814 39.3961 12.0001L63 12.154L62.8043 40V39.9958Z" stroke="#2D2D7C" stroke-width="2" stroke-linecap="round" stroke-linejoin="round"/>
<path d="M64 56.0533L65.703 46.6341C66.4182 47.2445 67.2969 47.6911 68.2912 47.8846C71.3025 48.4737 74.3465 46.4704 74.9112 43.527C75.4869 40.5284 73.4415 37.6552 70.3692 37.1278C69.3226 36.947 68.2934 37.0682 67.3689 37.4192L69.0718 28L92.6408 32.0535C95.5103 32.5469 97.4248 35.2159 96.9189 38.0125L92.7629 61" stroke="#2D2D7C" stroke-width="2" stroke-linecap="round" stroke-linejoin="round"/>
<path d="M64.9467 56L74.3659 57.6514C73.7555 58.3449 73.3089 59.197 73.1154 60.1612C72.5263 63.0812 74.5296 66.0329 77.473 66.5806C80.4716 67.1388 83.3448 65.1554 83.8722 62.1762C84.053 61.1613 83.9318 60.1633 83.5808 59.2668L93 60.9181L88.9465 83.7729C88.4531 86.5555 85.7841 88.4119 82.9875 87.9214L60 83.8913" stroke="#2D2D7C" stroke-width="2" stroke-linecap="round" stroke-linejoin="round"/>
</svg>
