<svg width="128" height="100" viewBox="0 0 128 100" fill="none" xmlns="http://www.w3.org/2000/svg">
<path d="M47 78.3733C47 78.3733 56.7393 85.8927 72.7796 79.2769C74.6182 79.5993 80.981 80.7151 80.981 80.7151L86 52.4066L83.8243 52.0248C80.5395 51.4479 77.7431 49.3352 76.2735 46.3572C74.8443 43.4619 72.8073 39.839 70.5186 37.3276C70.1794 36.9543 69.8446 36.5788 69.5609 36.1631C67.2807 32.8244 66.0947 29.1634 66.4979 25.0802C67.0354 20.7617 69.9747 15.7346 64.2433 14.0504C62.8483 13.5795 53.847 16.2246 55.0948 29.717C55.2377 31.4775 57.0444 38.1294 52.1384 41.3429" stroke="#F37920" stroke-width="2" stroke-linecap="round" stroke-linejoin="round"/>
<path d="M57.833 42.9138L40.9101 39.9298C38.1881 39.4499 35.5924 41.2674 35.1124 43.9894C34.6324 46.7114 36.45 49.3071 39.172 49.7871L56.0949 52.7711C58.8169 53.251 61.4126 51.4335 61.8926 48.7115C62.3725 45.9895 60.555 43.3938 57.833 42.9138Z" stroke="#F37920" stroke-width="2" stroke-linecap="round" stroke-linejoin="round"/>
<path d="M56.0949 52.7689L37.2123 49.4394C34.4903 48.9594 31.8946 50.7769 31.4146 53.4989C30.9347 56.221 32.7522 58.8167 35.4742 59.2966L54.3568 62.6261C57.0788 63.1061 59.6745 61.2886 60.1545 58.5665C60.6344 55.8445 58.8169 53.2488 56.0949 52.7689Z" stroke="#F37920" stroke-width="2" stroke-linecap="round" stroke-linejoin="round"/>
<path d="M56.2568 62.9619L35.5309 59.3074C33.3179 58.9172 31.2077 60.3943 30.8176 62.6067C30.4275 64.8191 31.9052 66.929 34.1182 67.3192L54.8441 70.9737C57.0571 71.3639 59.1673 69.8868 59.5574 67.6743C59.9475 65.4619 58.4698 63.3521 56.2568 62.9619Z" stroke="#F37920" stroke-width="2" stroke-linecap="round" stroke-linejoin="round"/>
<path d="M56.1181 71.1988L39.2462 68.2239C37.0332 67.8337 34.923 69.3108 34.5329 71.5232C34.1428 73.7357 35.6205 75.8455 37.8335 76.2357L54.7054 79.2107C56.9184 79.6009 59.0286 78.1237 59.4187 75.9113C59.8088 73.6989 58.3311 71.5891 56.1181 71.1988Z" stroke="#F37920" stroke-width="2" stroke-linecap="round" stroke-linejoin="round"/>
<path d="M98.0001 49.9953L86.7627 48.0138L80.4737 83.6806L91.7111 85.6621L98.0001 49.9953Z" stroke="#F37920" stroke-width="2" stroke-linecap="round" stroke-linejoin="round"/>
</svg>
