<svg width="36" height="36" viewBox="0 0 36 36" fill="none" xmlns="http://www.w3.org/2000/svg">
<mask id="mask0_1189_9404" style="mask-type:alpha" maskUnits="userSpaceOnUse" x="0" y="0" width="36" height="36">
<rect width="36" height="36" fill="#D9D9D9"/>
</mask>
<g mask="url(#mask0_1189_9404)">
<path d="M31.4999 24V15.15L19.4249 21.7125C18.9749 21.9625 18.4999 22.0875 17.9999 22.0875C17.4999 22.0875 17.0249 21.9625 16.5749 21.7125L3.8999 14.8125C3.6249 14.6625 3.43115 14.475 3.31865 14.25C3.20615 14.025 3.1499 13.775 3.1499 13.5C3.1499 13.225 3.20615 12.975 3.31865 12.75C3.43115 12.525 3.6249 12.3375 3.8999 12.1875L16.5749 5.28751C16.7999 5.16251 17.0312 5.06876 17.2687 5.00626C17.5062 4.94376 17.7499 4.91251 17.9999 4.91251C18.2499 4.91251 18.4937 4.94376 18.7312 5.00626C18.9687 5.06876 19.1999 5.16251 19.4249 5.28751L33.7124 13.0875C33.9624 13.2125 34.1562 13.3938 34.2937 13.6313C34.4312 13.8688 34.4999 14.125 34.4999 14.4V24C34.4999 24.425 34.3562 24.7813 34.0687 25.0688C33.7812 25.3563 33.4249 25.5 32.9999 25.5C32.5749 25.5 32.2187 25.3563 31.9312 25.0688C31.6437 24.7813 31.4999 24.425 31.4999 24ZM16.5749 30.7125L9.0749 26.6625C8.5749 26.3875 8.1874 26.0125 7.9124 25.5375C7.6374 25.0625 7.4999 24.55 7.4999 24V18.3L16.5749 23.2125C17.0249 23.4625 17.4999 23.5875 17.9999 23.5875C18.4999 23.5875 18.9749 23.4625 19.4249 23.2125L28.4999 18.3V24C28.4999 24.55 28.3624 25.0625 28.0874 25.5375C27.8124 26.0125 27.4249 26.3875 26.9249 26.6625L19.4249 30.7125C19.1999 30.8375 18.9687 30.9313 18.7312 30.9938C18.4937 31.0563 18.2499 31.0875 17.9999 31.0875C17.7499 31.0875 17.5062 31.0563 17.2687 30.9938C17.0312 30.9313 16.7999 30.8375 16.5749 30.7125Z" fill="#8BC53F"/>
</g>
</svg>
