<svg width="64" height="64" viewBox="0 0 64 64" fill="none" xmlns="http://www.w3.org/2000/svg">
<path d="M32.394 25.9523C37.5822 25.9523 41.788 21.7715 41.788 16.6143C41.788 11.457 37.5822 7.27625 32.394 7.27625C27.2058 7.27625 23 11.457 23 16.6143C23 21.7715 27.2058 25.9523 32.394 25.9523Z" stroke="#025125" stroke-width="2" stroke-miterlimit="10" stroke-linecap="round" stroke-linejoin="round"/>
<path d="M32.2192 36.6827C36.5438 41.5562 39.4565 47.6895 40.3403 54.4637" stroke="#025125" stroke-width="2" stroke-miterlimit="10" stroke-linecap="round" stroke-linejoin="round"/>
<path d="M32.2193 36.6828C26.0548 29.7373 17.0444 25.3556 7 25.3556C7 37.8431 13.8926 48.7283 24.1038 54.4637" stroke="#025125" stroke-width="2" stroke-miterlimit="10" stroke-linecap="round" stroke-linejoin="round"/>
<path d="M24.104 54.4637C26.6276 55.8838 29.3457 56.9944 32.2251 57.7293" stroke="#025125" stroke-width="2" stroke-miterlimit="10" stroke-linecap="round" stroke-linejoin="round"/>
<path d="M32.2192 36.6828C38.3837 29.7373 47.3942 25.3556 57.4385 25.3556C57.4385 37.8431 50.5459 48.7283 40.3348 54.4637" stroke="#025125" stroke-width="2" stroke-miterlimit="10" stroke-linecap="round" stroke-linejoin="round"/>
<path d="M32.2192 36.6827C27.8947 41.5562 24.982 47.6895 24.0981 54.4637" stroke="#025125" stroke-width="2" stroke-miterlimit="10" stroke-linecap="round" stroke-linejoin="round"/>
<path d="M40.3403 54.4637C37.8167 55.8838 35.0986 56.9944 32.2192 57.7293" stroke="#025125" stroke-width="2" stroke-miterlimit="10" stroke-linecap="round" stroke-linejoin="round"/>
</svg>
